<svg width="210" height="49" viewBox="0 0 210 49" fill="none" xmlns="http://www.w3.org/2000/svg">
<g clip-path="url(#clip0)">
<path d="M97.5002 1.20001L99.2002 1.20001L99.2002 36.9L97.5002 36.9L97.5002 1.20001Z" fill="#353535"/>
<path d="M99.3998 37.1L99.3998 10.8L102 10.8L102 10.3L99.3998 10.3L99.3998 9.90001L102 9.90001L102 7.70001L99.3998 7.70001L99.3998 1.10001L99.3998 0.400009L102.3 0.400009L102.3 37.8L99.3998 37.8L99.3998 37.1Z" fill="#353535"/>
<path d="M92.5002 38.1L92.4002 38.1L92.3002 38.1C92.2002 38.1 92.2002 38.1 92.1002 38L90.2002 36.2C90.1002 36.2 90.1002 36.3 90.0002 36.3L69.0002 36.3L68.9002 36.3L66.5002 35.4C66.4002 35.4 66.3002 35.3 66.3002 35.2L59.5002 35.2L59.4002 35.2L56.7002 33.1C56.6002 33.1 56.6002 33.2 56.5002 33.2L27.5002 33.2C27.5002 34 27.5002 35.5 27.5002 37.9C27.5002 38.3 27.7002 39.4 28.0002 39.8L28.2002 40C29.0002 41 30.8002 43.2 33.0002 43.6L33.7002 43.6L50.7002 43.6C50.9002 43.6 51.0002 43.6 51.2002 43.7C52.3002 43.9 53.0002 44.9 53.0002 46C53.0002 47.3 51.9002 48.4 50.6002 48.4L27.5002 48.4C27.0002 48.4 26.2002 48 26.1002 47.9C26.0002 47.8 25.9002 47.7 25.8002 47.6C24.4002 46.4 21.2002 43.3 20.4002 42C19.6002 40.6 19.2002 39.5 19.1002 38.1C19.0002 37.4 18.8002 34.9 18.7002 33.2L18.2002 33.2C18.1002 33.2 18.1002 33.2 18.0002 33.2C18.0002 33.2 17.9002 33.2 17.9002 33.1L14.0002 28.6L5.30019 28.6C5.10019 28.6 4.90019 28.4 4.90019 28.2L4.90019 28L1.30019 28C1.10019 28 0.90019 27.8 0.90019 27.6L0.90019 25.5L-0.09981 25.5L-0.0998088 12.6L0.900191 12.6L0.900191 10.5C0.900191 10.3 1.10019 10.1 1.30019 10.1L4.90019 10.1L4.90019 10C4.90019 9.80001 5.10019 9.60001 5.30019 9.60001L13.9002 9.60001L17.8002 5.10001C17.8002 5.10001 17.9002 5.00001 18.0002 5.00001C18.0002 5.00001 18.0002 5.00001 18.1002 5.00001L56.4002 5.00001C56.5002 5.00001 56.5002 5.00001 56.6002 5.10001L59.3002 3.00001C59.3002 3.00001 59.3002 3.00001 59.4002 3.00001L66.3002 3.00001C66.3002 2.90001 66.4002 2.80001 66.5002 2.80001L68.9002 1.90001L69.0002 1.90001L90.0002 1.90001C90.1002 1.90001 90.1002 1.90001 90.2002 2.00001L92.1002 0.200015C92.1002 0.200015 92.2002 0.100015 92.3002 0.100015C92.4002 1.48392e-05 92.4002 1.48392e-05 92.5002 1.48479e-05L97.2002 1.52588e-05L97.2002 1.00002L97.2002 7.40002L92.7002 7.40001L92.5002 7.40001L92.5002 9.60002L92.7002 9.60002L97.2002 9.60002L97.2002 10L92.7002 10L92.5002 10L92.5002 10.5L92.7002 10.5L97.2002 10.5L97.2002 37L97.2002 38L92.5002 38.1ZM4.90019 10.9L1.70019 10.9L1.70019 27.2L4.90019 27.2L4.90019 10.9ZM8.40019 27.9L11.2002 27.9L11.2002 24.2L8.40019 24.2L8.40019 27.9ZM13.7002 10.5L5.70019 10.5L5.70019 10.6L5.70019 27.6L5.70019 27.7L7.90019 27.7L7.90019 27L7.20019 27C7.30019 26.1 8.00019 23.4 8.40019 21.2C8.40019 22 8.40019 22.9 8.40019 23.7L9.10019 23.7C9.30019 22.9 9.50019 22 9.60019 21.2C9.60019 22 9.60019 22.9 9.60019 23.7L10.3002 23.7C10.5002 22.9 10.7002 22 10.8002 21.2C10.8002 22 10.8002 22.9 10.8002 23.7L11.5002 23.7C11.7002 22.9 11.9002 22 12.0002 21.2C12.0002 23.2 12.0002 25.6 12.0002 27L11.7002 27L11.7002 27.7L13.7002 27.7L13.7002 10.5ZM17.7002 6.50001L14.4002 10.3L14.4002 28L17.7002 31.8L17.7002 6.50001ZM19.1002 31.3C19.1002 31.3 19.6002 36.8 19.7002 37.9C19.8002 39.2 20.2002 40.2 20.9002 41.5C21.4002 42.5 23.9002 44.9 26.1002 46.9C26.3002 47 26.3002 47.1 26.4002 47.1C26.7002 47.2 27.2002 47.5 27.4002 47.5L50.5002 47.5C51.4002 47.5 52.1002 46.8 52.1002 45.9C52.1002 45.3 51.7002 44.7 51.2002 44.4C51.2002 44.4 51.2002 44.4 51.1002 44.5C51.1002 44.6 51.0002 44.6 51.0002 44.7C50.9002 44.8 50.9002 44.9 50.8002 45L50.7002 45.1C50.6002 45.2 50.5002 45.2 50.4002 45.3C50.4002 45.3 50.3002 45.3 50.3002 45.4C50.1002 45.5 50.0002 45.5 49.8002 45.5L34.9002 45.5C34.7002 45.5 34.5002 45.5 34.4002 45.4C34.3002 45.4 34.3002 45.3 34.2002 45.3C34.1002 45.2 34.0002 45.2 33.9002 45.1C33.8002 45.1 33.8002 45 33.8002 45C33.7002 44.9 33.7002 44.8 33.6002 44.7C33.6002 44.6 33.5002 44.6 33.5002 44.5L33.4002 44.4L32.9002 44.4C30.4002 43.9 28.5002 41.6 27.6002 40.5L27.4002 40.3C27.0002 39.7 26.8002 38.2 26.8002 38C26.8002 35.9 26.8002 32.5 26.8002 32.2C26.7002 31.7 26.0002 31.2 25.7002 30.9C25.1002 30.9 22.0002 31 20.4002 30.9L20.3002 30.9C19.8002 30.9 19.5002 31 19.4002 31.2C19.1002 31.1 19.1002 31.3 19.1002 31.3ZM23.3002 28.4C24.8002 28.4 26.1002 27.5 26.1002 26.5C26.1002 25.4 24.9002 24.6 23.3002 24.6C21.8002 24.6 20.5002 25.5 20.5002 26.5C20.6002 27.5 21.8002 28.4 23.3002 28.4ZM21.1002 30C21.2002 30 21.3002 30 21.4002 30C21.5002 29.5 21.6002 29 21.7002 28.5C21.5002 28.4 21.3002 28.3 21.1002 28.2C21.1002 28.8 21.1002 29.4 21.1002 30ZM22.2002 30C22.3002 30 22.4002 30 22.5002 30C22.6002 29.6 22.6002 29.2 22.7002 28.8C22.5002 28.8 22.3002 28.7 22.2002 28.7C22.2002 29.2 22.2002 29.6 22.2002 30ZM23.4002 30C23.5002 30 23.6002 30 23.7002 30C23.8002 29.6 23.8002 29.2 23.9002 28.8C23.7002 28.8 23.6002 28.8 23.4002 28.8C23.4002 29.3 23.4002 29.6 23.4002 30ZM24.6002 30C24.7002 30 24.8002 30 24.9002 30C25.0002 29.5 25.1002 29 25.2002 28.5C25.0002 28.6 24.8002 28.7 24.6002 28.7C24.6002 29.1 24.6002 29.6 24.6002 30ZM18.4002 32.3C18.4002 32.1 18.4002 32 18.4002 31.8L18.4002 32.3ZM45.2002 5.80001L18.4002 5.80001L18.4002 30.8C18.4002 30.7 18.5002 30.6 18.6002 30.5C18.7002 30.4 18.8002 30.3 19.0002 30.2C19.3002 28.8 19.6002 26.9 19.9002 25.2C19.9002 26.8 19.9002 28.5 19.9002 29.9C20.0002 29.9 20.0002 29.9 20.1002 29.9L20.2002 29.9C20.3002 29.2 20.5002 28.5 20.6002 27.7C20.2002 27.3 20.0002 26.8 20.0002 26.3C20.0002 26.1 20.1002 25.9 20.1002 25.6C20.0002 25.4 20.0002 25.2 20.0002 24.9C20.0002 23.6 21.5002 22.5 23.3002 22.5C25.1002 22.5 26.6002 23.6 26.6002 24.9C26.6002 25.1 26.5002 25.3 26.5002 25.6C26.6002 25.8 26.6002 26 26.6002 26.3C26.6002 26.9 26.3002 27.5 25.7002 28C25.7002 28.7 25.7002 29.3 25.7002 29.9C25.8002 29.9 25.8002 29.9 25.9002 30C25.9002 30 26.0002 30 26.0002 30.1C26.3002 28.7 26.6002 26.9 26.9002 25.2C26.9002 27.1 26.9002 29.3 26.9002 30.9L27.0002 31C27.2002 29.7 27.7002 27.3 28.1002 25.2C28.1002 27.5 28.1002 30.1 28.1002 31.7L27.4002 31.7C27.4002 31.7 27.4002 31.7 27.4002 31.8C27.4002 31.8 27.4002 31.9 27.4002 32.3L45.2002 32.3L45.2002 5.80001ZM56.1002 6.00001L45.7002 6.00001L45.7002 6.40001L56.1002 6.40001L56.1002 6.00001ZM56.1002 6.80001L45.7002 6.80001L45.7002 7.20001L56.1002 7.20001L56.1002 6.80001ZM56.1002 7.60001L45.7002 7.60001L45.7002 8.00001L56.1002 8.00001L56.1002 7.60001ZM56.1002 8.40001L45.7002 8.40001L45.7002 8.80001L56.1002 8.80001L56.1002 8.40001ZM56.1002 9.20001L45.7002 9.20001L45.7002 9.60001L56.1002 9.60001L56.1002 9.20001ZM56.1002 9.90001L45.7002 9.90001L45.7002 10.3L56.1002 10.3L56.1002 9.90001ZM56.1002 10.7L45.7002 10.7L45.7002 11.1L56.1002 11.1L56.1002 10.7ZM56.1002 11.5L45.7002 11.5L45.7002 11.9L56.1002 11.9L56.1002 11.5ZM56.1002 12.3L45.7002 12.3L45.7002 12.7L56.1002 12.7L56.1002 12.3ZM56.1002 13L45.7002 13L45.7002 13.3L56.1002 13.3L56.1002 13ZM56.1002 13.8L45.7002 13.8L45.7002 14.1L56.1002 14.1L56.1002 13.8ZM56.1002 14.6L45.7002 14.6L45.7002 14.9L56.1002 14.9L56.1002 14.6ZM56.1002 15.4L45.7002 15.4L45.7002 15.7L56.1002 15.7L56.1002 15.4ZM56.1002 16.2L45.7002 16.2L45.7002 16.5L56.1002 16.5L56.1002 16.2ZM56.1002 16.9L45.7002 16.9L45.7002 17.2L56.1002 17.2L56.1002 16.9ZM56.1002 17.7L45.7002 17.7L45.7002 18L56.1002 18L56.1002 17.7ZM56.1002 18.5L45.7002 18.5L45.7002 18.8L56.1002 18.8L56.1002 18.5ZM56.1002 19.3L45.7002 19.3L45.7002 19.6L56.1002 19.6L56.1002 19.3ZM56.1002 20.1L45.7002 20.1L45.7002 20.4L56.1002 20.4L56.1002 20.1ZM56.1002 20.8L45.7002 20.8L45.7002 21.1L56.1002 21.1L56.1002 20.8ZM56.1002 21.6L45.8002 21.6L45.8002 21.9L56.1002 21.9L56.1002 21.6ZM56.1002 22.4L45.8002 22.4L45.8002 22.6L56.1002 22.6L56.1002 22.4ZM56.1002 23.2L45.8002 23.2L45.8002 23.4L56.1002 23.4L56.1002 23.2ZM56.1002 23.9L45.8002 23.9L45.8002 24.1L56.1002 24.1L56.1002 23.9ZM56.1002 24.7L45.8002 24.7L45.8002 24.9L56.1002 24.9L56.1002 24.7ZM56.1002 25.5L45.8002 25.5L45.8002 25.7L56.1002 25.7L56.1002 25.5ZM56.1002 26.3L45.8002 26.3L45.8002 26.5L56.1002 26.5L56.1002 26.3ZM56.1002 27.1L45.8002 27.1L45.8002 27.3L56.1002 27.3L56.1002 27.1ZM56.1002 27.8L45.8002 27.8L45.8002 28L56.1002 28L56.1002 27.8ZM56.1002 28.6L45.8002 28.6L45.8002 28.8L56.1002 28.8L56.1002 28.6ZM56.1002 29.4L45.8002 29.4L45.8002 29.6L56.1002 29.6L56.1002 29.4ZM56.1002 30.2L45.8002 30.2L45.8002 30.4L56.1002 30.4L56.1002 30.2ZM56.1002 30.9L45.8002 30.9L45.8002 31.1L56.1002 31.1L56.1002 30.9ZM56.1002 31.7L45.8002 31.7L45.8002 31.9L56.1002 31.9L56.1002 31.7ZM66.1002 3.70001L59.8002 3.70001L59.8002 4.10001L66.1002 4.10001L66.1002 3.70001ZM66.1002 4.60001L59.8002 4.60001L59.8002 5.00001L66.1002 5.00001L66.1002 4.60001ZM66.1002 5.50001L59.8002 5.50001L59.8002 5.90001L66.1002 5.90001L66.1002 5.50001ZM66.1002 6.40001L59.8002 6.40001L59.8002 6.80001L66.1002 6.80001L66.1002 6.40001ZM66.1002 7.30001L59.8002 7.30001L59.8002 7.70001L66.1002 7.70001L66.1002 7.30001ZM66.1002 8.30001L59.8002 8.30001L59.8002 8.70001L66.1002 8.70001L66.1002 8.30001ZM66.1002 9.20001L59.8002 9.20001L59.8002 9.60001L66.1002 9.60001L66.1002 9.20001ZM66.1002 10.1L59.8002 10.1L59.8002 10.5L66.1002 10.5L66.1002 10.1ZM66.1002 11L59.8002 11L59.8002 11.4L66.1002 11.4L66.1002 11ZM66.1002 11.9L59.8002 11.9L59.8002 12.2L66.1002 12.2L66.1002 11.9ZM66.1002 12.8L59.8002 12.8L59.8002 13.1L66.1002 13.1L66.1002 12.8ZM66.1002 13.8L59.8002 13.8L59.8002 14.1L66.1002 14.1L66.1002 13.8ZM66.1002 14.7L59.8002 14.7L59.8002 15L66.1002 15L66.1002 14.7ZM66.1002 15.6L59.8002 15.6L59.8002 15.9L66.1002 15.9L66.1002 15.6ZM66.1002 16.5L59.8002 16.5L59.8002 16.8L66.1002 16.8L66.1002 16.5ZM66.1002 17.4L59.8002 17.4L59.8002 17.7L66.1002 17.7L66.1002 17.4ZM66.1002 18.3L59.8002 18.3L59.8002 18.6L66.1002 18.6L66.1002 18.3ZM66.1002 19.3L59.8002 19.3L59.8002 19.6L66.1002 19.6L66.1002 19.3ZM66.1002 20.2L59.8002 20.2L59.8002 20.5L66.1002 20.5L66.1002 20.2ZM66.1002 21.1L59.8002 21.1L59.8002 21.4L66.1002 21.4L66.1002 21.1ZM66.1002 22L59.8002 22L59.8002 22.3L66.1002 22.3L66.1002 22ZM66.1002 22.9L59.8002 22.9L59.8002 23.1L66.1002 23.1L66.1002 22.9ZM66.1002 23.9L59.8002 23.9L59.8002 24.1L66.1002 24.1L66.1002 23.9ZM66.1002 24.8L59.9002 24.8L59.9002 25L66.1002 25L66.1002 24.8ZM66.1002 25.7L59.9002 25.7L59.9002 25.9L66.1002 25.9L66.1002 25.7ZM66.1002 26.6L59.9002 26.6L59.9002 26.8L66.1002 26.8L66.1002 26.6ZM66.1002 27.5L59.9002 27.5L59.9002 27.7L66.1002 27.7L66.1002 27.5ZM66.1002 28.4L59.9002 28.4L59.9002 28.6L66.1002 28.6L66.1002 28.4ZM66.1002 29.4L59.9002 29.4L59.9002 29.6L66.1002 29.6L66.1002 29.4ZM66.1002 30.3L59.9002 30.3L59.9002 30.5L66.1002 30.5L66.1002 30.3ZM66.1002 31.2L59.9002 31.2L59.9002 31.4L66.1002 31.4L66.1002 31.2ZM66.1002 32.1L59.9002 32.1L59.9002 32.3L66.1002 32.3L66.1002 32.1ZM66.1002 33L59.9002 33L59.9002 33.2L66.1002 33.2L66.1002 33ZM66.1002 34L59.9002 34L59.9002 34.2L66.1002 34.2L66.1002 34ZM68.7002 2.70001L67.0002 3.30001L67.0002 34.7L68.7002 35.3L68.7002 2.70001ZM89.6002 2.60001L69.4002 2.60001L69.4002 35.6L89.6002 35.6L89.6002 2.60001ZM92.0002 1.20001L90.4002 2.70001L90.4002 35.4L92.0002 36.9L92.0002 1.20001Z" fill="#353535"/>
<path d="M74.8994 8.10001C75.1994 8.10001 75.3994 8.30001 75.3994 8.60001L75.3994 12C75.3994 12.3 75.1994 12.5 74.8994 12.5L71.4994 12.5C71.1994 12.5 70.9994 12.3 70.9994 12L70.9994 8.60001C70.9994 8.30001 71.1994 8.10001 71.4994 8.10001L74.8994 8.10001ZM73.2994 11.9C74.1994 11.9 74.7994 11.2 74.7994 10.4C74.7994 9.50001 74.0994 8.80001 73.2994 8.80001C72.4994 8.80001 71.7994 9.50001 71.7994 10.4C71.6994 11.2 72.3994 11.9 73.2994 11.9Z" fill="#353535"/>
<path d="M89 35L87.9 35C88 33.5 88.7 29.5 89 26C89 29.1 89 32.8 89 35Z" fill="#353535"/>
<path d="M87.8994 35L86.7994 35C86.8994 33.5 87.4994 29.5 87.8994 26C87.8994 29.1 87.8994 32.8 87.8994 35Z" fill="#353535"/>
<path d="M86.7002 35L85.6002 35C85.7002 33.5 86.3002 29.5 86.7002 26C86.7002 29.1 86.7002 32.8 86.7002 35Z" fill="#353535"/>
<path d="M85.5996 35L84.4996 35C84.5996 33.5 85.2996 29.5 85.5996 26C85.5996 29.1 85.5996 32.8 85.5996 35Z" fill="#353535"/>
<path d="M84.3994 35L83.2994 35C83.3994 33.5 84.0994 29.5 84.3994 26C84.3994 29.1 84.3994 32.8 84.3994 35Z" fill="#353535"/>
<path d="M83.2998 35L82.1998 35C82.2998 33.5 82.9998 29.5 83.2998 26C83.2998 29.1 83.2998 32.8 83.2998 35Z" fill="#353535"/>
<path d="M82.0996 35L80.9996 35C81.0996 33.5 81.7996 29.5 82.0996 26C82.0996 29.1 82.0996 32.8 82.0996 35Z" fill="#353535"/>
<path d="M81 35L79.9 35C80 33.5 80.6 29.5 81 26C81 29.1 81 32.8 81 35Z" fill="#353535"/>
<path d="M79.7998 35L78.5998 35C78.6998 33.5 79.3998 29.5 79.7998 26C79.7998 29.1 79.7998 32.8 79.7998 35Z" fill="#353535"/>
<path d="M78.7002 35L77.6002 35C77.7002 33.5 78.4002 29.5 78.7002 26C78.7002 29.1 78.7002 32.8 78.7002 35Z" fill="#353535"/>
<path d="M77.5 35L76.4 35C76.5 33.5 77.1 29.5 77.5 26C77.5 29.1 77.5 32.8 77.5 35Z" fill="#353535"/>
<path d="M76.3994 35L75.1994 35C75.2994 33.5 75.8994 29.5 76.3994 26C76.3994 29.1 76.3994 32.8 76.3994 35Z" fill="#353535"/>
<path d="M75.2002 35L74.0002 35C74.1002 33.5 74.8002 29.5 75.2002 26C75.2002 29.1 75.2002 32.8 75.2002 35Z" fill="#353535"/>
<path d="M74.0996 35L72.9996 35C73.0996 33.5 73.6996 29.5 74.0996 26C74.0996 29.1 74.0996 32.8 74.0996 35Z" fill="#353535"/>
<path d="M72.8994 35L71.7994 35C71.8994 33.5 72.4994 29.5 72.8994 26C72.8994 29.1 72.8994 32.8 72.8994 35Z" fill="#353535"/>
<path d="M71.7998 35L70.6998 35C70.7998 33.5 71.4998 29.5 71.7998 26C71.7998 29.1 71.7998 32.8 71.7998 35Z" fill="#353535"/>
<path d="M70.5996 35L69.4996 35C69.5996 33.5 70.2996 29.5 70.5996 26C70.5996 29.1 70.5996 32.8 70.5996 35Z" fill="#353535"/>
<path d="M88.1996 3.20002C88.1996 4.20002 88.1996 5.90002 88.1996 7.30002C87.8996 5.70002 87.3996 3.90002 87.2996 3.20002C87.2996 4.20002 87.2996 5.90002 87.2996 7.30002C86.9996 5.70002 86.4996 3.90002 86.3996 3.20002C86.3996 4.20002 86.3996 5.90002 86.3996 7.30002C86.0996 5.70002 85.5996 3.90002 85.4996 3.20002C85.4996 4.20002 85.4996 5.90002 85.4996 7.30002C85.1996 5.70002 84.6996 3.90002 84.5996 3.20002C84.5996 4.20002 84.5996 5.90002 84.5996 7.30002C84.2996 5.70002 83.7996 3.90002 83.6996 3.20002C83.6996 4.20002 83.6996 5.90002 83.6996 7.30002C83.3996 5.70002 82.8996 3.90002 82.7996 3.20002C82.7996 4.20002 82.7996 5.90002 82.7996 7.30002C82.4996 5.70002 81.9996 3.90002 81.8996 3.20002C81.8996 4.20002 81.8996 5.90002 81.8996 7.30002C81.5996 5.70002 81.0996 3.90002 80.9996 3.20002C80.9996 4.20002 80.9996 5.90002 80.9996 7.30002C80.6996 5.70002 80.1996 3.90002 80.0996 3.20002C80.0996 4.20002 80.0996 5.90002 80.0996 7.30002C79.7996 5.70002 79.2996 3.90002 79.1996 3.20002C79.1996 4.20002 79.1996 5.90002 79.1996 7.30002C78.8996 5.70002 78.3996 3.90002 78.2996 3.20002C78.2996 4.20002 78.2996 5.90002 78.2996 7.30002C77.9996 5.70002 77.4996 3.90002 77.3996 3.20002C77.3996 4.20002 77.3996 5.90002 77.3996 7.30002C77.0996 5.70002 76.5996 3.90002 76.4996 3.20002C76.4996 4.20002 76.4996 5.90002 76.4996 7.30002C76.1996 5.70002 75.6996 3.90002 75.5996 3.20002C75.5996 4.20002 75.5996 5.90002 75.5996 7.30002C75.2996 5.70002 74.7996 3.90002 74.6996 3.20002C74.6996 4.20002 74.6996 5.90002 74.6996 7.30002C74.3996 5.70002 73.8996 3.90002 73.7996 3.20002C73.7996 4.20002 73.7996 5.90002 73.7996 7.30002C73.4996 5.70002 72.9996 3.90002 72.8996 3.20002C72.8996 4.20002 72.8996 5.90002 72.8996 7.30002C72.5996 5.70002 72.0996 3.90002 71.9996 3.20002C71.9996 4.20002 71.9996 5.90002 71.9996 7.30002C71.6996 5.70002 71.1996 3.90002 71.0996 3.20002C71.0996 4.20002 71.0996 5.90002 71.0996 7.30002C70.7996 5.70002 70.2996 3.90002 70.1996 3.20002C70.1996 4.20002 70.1996 5.90002 70.1996 7.30002C69.8996 5.70002 69.3996 3.80002 69.2996 3.10002L70.1996 3.10002L71.0996 3.10002L71.9996 3.10002L72.8996 3.10002L73.7996 3.10002L74.6996 3.10002L75.5996 3.10002L76.4996 3.10002L77.3996 3.10002L78.2996 3.10002L79.2996 3.10002L80.1996 3.10002L81.0996 3.10002L81.9996 3.10002L82.8996 3.10002L83.7996 3.10002L84.6996 3.10002L85.5996 3.10002L86.4996 3.10002L87.2996 3.10002L88.1996 3.20002L89.0996 3.10002C89.0996 4.10002 89.0996 5.80002 89.0996 7.30002C88.6996 5.80002 88.2996 3.90002 88.1996 3.20002Z" fill="#353535"/>
<path d="M73.3 9.20001C73.9 9.20001 74.5 9.70001 74.5 10.4C74.5 11.1 74 11.6 73.3 11.6C72.7 11.6 72.1 11.1 72.1 10.4C72.1 9.70001 72.6 9.20001 73.3 9.20001Z" fill="#353535"/>
<path d="M90.5998 19.1L91.7998 19.1L91.7998 19.6L90.5998 19.6L90.5998 19.1Z" fill="#353535"/>
<path d="M91.7998 20.4L91.7998 20.9L90.5998 20.8L90.5998 20.3L91.7998 20.4Z" fill="#353535"/>
<path d="M91.7998 21.6L91.7998 22.2L90.5998 22L90.5998 21.4L91.7998 21.6Z" fill="#353535"/>
<path d="M91.7998 22.9L91.7998 23.5L90.5998 23.2L90.5998 22.6L91.7998 22.9Z" fill="#353535"/>
<path d="M91.7998 24.1L91.7998 24.8L90.5998 24.4L90.5998 23.8L91.7998 24.1Z" fill="#353535"/>
<path d="M91.7998 25.4L91.7998 26.1L90.5998 25.6L90.5998 24.9L91.7998 25.4Z" fill="#353535"/>
<path d="M91.7998 26.6L91.7998 27.3L90.5998 26.8L90.5998 26.1L91.7998 26.6Z" fill="#353535"/>
<path d="M91.7998 27.9L91.7998 28.6L90.5998 28L90.5998 27.2L91.7998 27.9Z" fill="#353535"/>
<path d="M91.7998 29.1L91.7998 29.9L90.5998 29.2L90.5998 28.4L91.7998 29.1Z" fill="#353535"/>
<path d="M91.7998 30.4L91.7998 31.2L90.5998 30.4L90.5998 29.5L91.7998 30.4Z" fill="#353535"/>
<path d="M91.7998 31.6L91.7998 32.5L90.5998 31.6L90.5998 30.7L91.7998 31.6Z" fill="#353535"/>
<path d="M91.7998 32.8L91.7998 33.8L90.5998 32.8L90.5998 31.9L91.7998 32.8Z" fill="#353535"/>
<path d="M91.7998 34.1L91.7998 35.1L90.5998 34L90.5998 33L91.7998 34.1Z" fill="#353535"/>
<path d="M91.7998 35.3L91.7998 36.4L90.5998 35.2L90.5998 34.2L91.7998 35.3Z" fill="#353535"/>
<path d="M91.7998 2.30001L90.5998 3.80001L90.5998 3.50001L91.7998 1.90001L91.7998 2.30001Z" fill="#353535"/>
<path d="M91.7998 3.40002L90.5998 4.80002L90.5998 4.50002L91.7998 3.10002L91.7998 3.40002Z" fill="#353535"/>
<path d="M91.7998 4.60001L90.5998 5.90001L90.5998 5.50001L91.7998 4.20001L91.7998 4.60001Z" fill="#353535"/>
<path d="M91.7998 5.70001L90.5998 6.90001L90.5998 6.60001L91.7998 5.40001L91.7998 5.70001Z" fill="#353535"/>
<path d="M91.7998 6.90002L90.5998 7.90002L90.5998 7.60002L91.7998 6.50002L91.7998 6.90002Z" fill="#353535"/>
<path d="M91.7998 8.00001L90.5998 9.00001L90.5998 8.60001L91.7998 7.70001L91.7998 8.00001Z" fill="#353535"/>
<path d="M91.7998 9.20002L90.5998 10L90.5998 9.70002L91.7998 8.80002L91.7998 9.20002Z" fill="#353535"/>
<path d="M91.7998 10.3L90.5998 11.1L90.5998 10.7L91.7998 9.90001L91.7998 10.3Z" fill="#353535"/>
<path d="M91.7998 11.5L90.5998 12.1L90.5998 11.7L91.7998 11.1L91.7998 11.5Z" fill="#353535"/>
<path d="M91.7998 12.6L90.5998 13.2L90.5998 12.8L91.7998 12.2L91.7998 12.6Z" fill="#353535"/>
<path d="M91.7998 13.8L90.5998 14.2L90.5998 13.8L91.7998 13.4L91.7998 13.8Z" fill="#353535"/>
<path d="M91.7998 14.9L90.5998 15.3L90.5998 14.8L91.7998 14.5L91.7998 14.9Z" fill="#353535"/>
<path d="M91.7998 16.1L90.5998 16.3L90.5998 15.9L91.7998 15.7L91.7998 16.1Z" fill="#353535"/>
<path d="M91.7998 17.3L90.5998 17.4L90.5998 16.9L91.7998 16.8L91.7998 17.3Z" fill="#353535"/>
<path d="M90.5998 17.9L91.7998 17.9L91.7998 18.4L90.5998 18.4L90.5998 17.9Z" fill="#353535"/>
<path d="M67.1994 20.3L68.3994 20.3L68.3994 20.9L67.1994 20.9L67.1994 20.3Z" fill="#353535"/>
<path d="M68.3994 22.2L67.1994 22.2L67.1994 21.5L68.3994 21.5L68.3994 22.2Z" fill="#353535"/>
<path d="M68.3994 23.5L67.1994 23.4L67.1994 22.7L68.3994 22.8L68.3994 23.5Z" fill="#353535"/>
<path d="M68.3994 24.8L67.1994 24.6L67.1994 23.9L68.3994 24L68.3994 24.8Z" fill="#353535"/>
<path d="M68.3994 26.1L67.1994 25.9L67.1994 25.1L68.3994 25.3L68.3994 26.1Z" fill="#353535"/>
<path d="M68.3994 27.3L67.1994 27.1L67.1994 26.3L68.3994 26.5L68.3994 27.3Z" fill="#353535"/>
<path d="M68.3994 28.6L67.1994 28.3L67.1994 27.5L68.3994 27.8L68.3994 28.6Z" fill="#353535"/>
<path d="M68.3994 29.9L67.1994 29.6L67.1994 28.8L68.3994 29.1L68.3994 29.9Z" fill="#353535"/>
<path d="M68.3994 31.2L67.1994 30.8L67.1994 30L68.3994 30.3L68.3994 31.2Z" fill="#353535"/>
<path d="M68.3994 32.5L67.1994 32L67.1994 31.2L68.3994 31.6L68.3994 32.5Z" fill="#353535"/>
<path d="M68.3994 33.8L67.1994 33.3L67.1994 32.4L68.3994 32.8L68.3994 33.8Z" fill="#353535"/>
<path d="M68.3994 34.1L68.3994 35L67.1994 34.5L67.1994 33.6L68.3994 34.1Z" fill="#353535"/>
<path d="M68.3994 3.40001L67.1994 3.90001L67.1994 3.60001L68.3994 3.20001L68.3994 3.40001Z" fill="#353535"/>
<path d="M68.3994 4.50001L67.1994 4.90001L67.1994 4.70001L68.3994 4.20001L68.3994 4.50001Z" fill="#353535"/>
<path d="M68.3994 5.60002L67.1994 6.00002L67.1994 5.70002L68.3994 5.30002L68.3994 5.60002Z" fill="#353535"/>
<path d="M68.3994 6.60002L67.1994 7.00002L67.1994 6.70002L68.3994 6.30002L68.3994 6.60002Z" fill="#353535"/>
<path d="M68.3994 7.70001L67.1994 8.10001L67.1994 7.80001L68.3994 7.40001L68.3994 7.70001Z" fill="#353535"/>
<path d="M68.3994 8.80002L67.1994 9.10002L67.1994 8.80002L68.3994 8.50002L68.3994 8.80002Z" fill="#353535"/>
<path d="M68.3994 9.90001L67.1994 10.2L67.1994 9.80002L68.3994 9.50002L68.3994 9.90001Z" fill="#353535"/>
<path d="M68.3994 11L67.1994 11.2L67.1994 10.8L68.3994 10.6L68.3994 11Z" fill="#353535"/>
<path d="M68.3994 12.1L67.1994 12.3L67.1994 11.9L68.3994 11.6L68.3994 12.1Z" fill="#353535"/>
<path d="M68.3994 13.2L67.1994 13.4L67.1994 12.9L68.3994 12.7L68.3994 13.2Z" fill="#353535"/>
<path d="M68.3994 14.2L67.1994 14.4L67.1994 13.9L68.3994 13.8L68.3994 14.2Z" fill="#353535"/>
<path d="M68.3994 15.3L67.1994 15.5L67.1994 15L68.3994 14.8L68.3994 15.3Z" fill="#353535"/>
<path d="M68.3994 16.4L67.1994 16.5L67.1994 16L68.3994 15.9L68.3994 16.4Z" fill="#353535"/>
<path d="M68.3994 17.5L67.1994 17.6L67.1994 17L68.3994 16.9L68.3994 17.5Z" fill="#353535"/>
<path d="M68.3994 18.6L67.1994 18.6L67.1994 18L68.3994 18L68.3994 18.6Z" fill="#353535"/>
<path d="M67.1994 19.1L68.3994 19.1L68.3994 19.7L67.1994 19.7L67.1994 19.1Z" fill="#353535"/>
<path d="M44.3994 31.7L43.2994 31.7C43.3994 30.6 43.9994 27.7 44.3994 25.2C44.3994 27.5 44.2994 30.1 44.3994 31.7Z" fill="#353535"/>
<path d="M43.2002 31.7L42.1002 31.7C42.2002 30.6 42.8002 27.7 43.2002 25.2C43.2002 27.5 43.2002 30.1 43.2002 31.7Z" fill="#353535"/>
<path d="M29.2002 31.7L28.1002 31.7C28.2002 30.6 28.9002 27.7 29.2002 25.2C29.2002 27.5 29.2002 30.1 29.2002 31.7Z" fill="#353535"/>
<path d="M30.3 10.3C30.3 10.1 30.3 9.90001 30.4 9.80001C30.1 8.60001 29.7 7.20001 29.7 6.60001C29.7 7.40001 29.7 8.80001 29.7 9.90001C29.4 8.60001 29 7.20001 28.9 6.60001C28.9 7.40001 28.9 8.80001 28.9 9.90001C28.6 8.60001 28.2 7.20001 28.1 6.60001C28.1 7.40001 28.1 8.80001 28.1 9.90001C27.8 8.60001 27.4 7.20001 27.3 6.60001C27.3 7.40001 27.3 8.80001 27.3 9.90001C27 8.60001 26.6 7.20001 26.5 6.60001C26.5 7.40001 26.5 8.80001 26.5 9.90001C26.2 8.60001 25.8 7.20001 25.7 6.60001C25.7 7.40001 25.7 8.80001 25.7 9.90001C25.4 8.60001 25 7.20001 24.9 6.60001C24.9 7.40001 24.9 8.80001 24.9 9.90001C24.6 8.60001 24.2 7.20001 24.1 6.60001C24.1 7.40001 24.1 8.80001 24.1 9.90001C23.8 8.60001 23.4 7.20001 23.3 6.60001C23.3 7.40001 23.3 8.80001 23.3 9.90001C23 8.60001 22.6 7.20001 22.5 6.60001C22.5 7.40001 22.5 8.80001 22.5 9.90001C22.2 8.60001 21.8 7.20001 21.7 6.60001C21.7 7.40001 21.7 8.80001 21.7 9.90001C21.4 8.60001 21 7.20001 20.9 6.60001C20.9 7.40001 20.9 8.80001 20.9 9.90001C20.6 8.60001 20.2 7.20001 20.1 6.60001C20.1 7.40001 20.1 8.80001 20.1 9.90001C19.8 8.60001 19.4 7.20001 19.3 6.60001C19.3 7.40001 19.3 8.80001 19.3 9.90001C19.3 8.60001 18.9 7.00001 18.8 6.50001L19.6 6.50001L20.4 6.50001L21.2 6.50001L22 6.50001L22.8 6.50001L23.6 6.50001L24.4 6.50001L25.2 6.50001L26 6.50001L26.8 6.50001L27.3 6.50001L28.1 6.50001L28.9 6.50001L29.7 6.50001L30.5 6.50001L31.3 6.50001L32.1 6.50001L32.9 6.50001L33.7 6.50001L34.3 6.50001L35.1 6.50001L35.9 6.50001L36.7 6.50001L37.5 6.50001L38.3 6.50001L39.1 6.50001L39.9 6.50001L40.7 6.50001L41.3 6.50001L42.1 6.50002L42.9 6.50002L43.7 6.50002L44.5 6.50002C44.5 7.30002 44.5 8.70001 44.5 9.90001C44.2 8.60001 43.8 7.20002 43.7 6.60002C43.7 7.40002 43.7 8.80001 43.7 9.90001C43.4 8.60001 43 7.20002 42.9 6.60002C42.9 7.40002 42.9 8.80001 42.9 9.90001C42.6 8.60001 42.2 7.20001 42.1 6.60001C42.1 7.30001 42.1 8.30001 42.1 9.40001C42.3 9.60001 42.5 9.90001 42.6 10.4C43.5 16.3 43.5 22.2 42.6 28C42.5 28.4 42.3 28.7 42.1 29C42.1 30.1 42.1 31.2 42.1 32L41 32C41.1 31.5 41.2 30.6 41.4 29.5C41.3 29.5 41.2 29.5 41.1 29.5L41 29.5C41 30.4 41 31.3 41 32L39.9 32C40 31.5 40.1 30.6 40.3 29.5L39.9 29.5C39.9 30.4 39.9 31.3 39.9 32L38.8 32C38.9 31.5 39 30.6 39.2 29.5L38.8 29.5C38.8 30.4 38.8 31.3 38.8 32L37.6 32C37.7 31.5 37.8 30.6 38 29.5L37.6 29.5C37.6 30.4 37.6 31.3 37.6 32L36.5 32C36.6 31.5 36.7 30.6 36.9 29.5L36.5 29.5C36.5 30.4 36.5 31.3 36.5 32L35.3 32C35.4 31.5 35.5 30.6 35.7 29.5L35.3 29.5C35.3 30.4 35.3 31.3 35.3 32L34.2 32C34.3 31.5 34.4 30.6 34.6 29.5L34.2 29.5C34.2 30.4 34.2 31.3 34.2 32L33 32C33.1 31.5 33.2 30.6 33.4 29.5L33 29.5C33 30.4 33 31.3 33 32L31.9 32C32 31.5 32.1 30.6 32.3 29.5L32.1 29.5C32 29.5 31.9 29.5 31.8 29.5C31.8 30.5 31.8 31.3 31.8 32L30.7 32C30.8 31.5 31 30.4 31.2 29.2C31 29 30.8 28.8 30.7 28.5C30.7 29.9 30.7 31.1 30.7 32L29.6 32C29.7 31 30.3 28.4 30.7 26L30.7 10.3L30.3 10.3ZM31.2 6.50001C31.2 7.10001 31.2 8.00001 31.2 8.90001C31.4 8.80001 31.5 8.80001 31.7 8.80001C31.5 7.80001 31.3 6.90001 31.2 6.50001ZM32 6.50001C32 7.10001 32 7.90001 32 8.70001L32.5 8.70001C32.3 7.80001 32.1 6.90001 32 6.50001ZM32.8 6.50001C32.8 7.10001 32.8 7.90001 32.8 8.70001L33.3 8.70001C33.1 7.80001 32.8 6.90001 32.8 6.50001ZM33.5 6.50001C33.5 7.10001 33.5 7.90001 33.5 8.70001L34 8.70001C33.8 7.80001 33.6 6.90001 33.5 6.50001ZM34.3 6.50001C34.3 7.10001 34.3 7.90001 34.3 8.70001L34.8 8.70001C34.6 7.80001 34.4 6.90001 34.3 6.50001ZM35.1 6.50001C35.1 7.10001 35.1 7.90001 35.1 8.70001L35.6 8.70001C35.4 7.80001 35.1 6.90001 35.1 6.50001ZM35.9 6.50001C35.9 7.10001 35.9 7.90001 35.9 8.70001L36.4 8.70001C36.1 7.80001 35.9 6.90001 35.9 6.50001ZM36.6 6.50001C36.6 7.10001 36.6 7.90001 36.6 8.70001L37.1 8.70001C36.9 7.80001 36.7 6.90001 36.6 6.50001ZM37.4 6.50001C37.4 7.10001 37.4 7.90001 37.4 8.70001L37.9 8.70001C37.7 7.80001 37.5 6.90001 37.4 6.50001ZM38.2 6.50001C38.2 7.10001 38.2 7.90001 38.2 8.70001L38.7 8.70001C38.5 7.80001 38.2 6.90001 38.2 6.50001ZM38.9 6.50001C38.9 7.10001 38.9 7.90001 38.9 8.70001L39.4 8.70001C39.2 7.80001 39 6.90001 38.9 6.50001ZM39.7 6.50001C39.7 7.10001 39.7 7.90001 39.7 8.70001L40.2 8.70001C40 7.80001 39.8 6.90001 39.7 6.50001ZM40.5 6.50001C40.5 7.10001 40.5 7.90001 40.5 8.70001L41 8.70001C40.8 7.80001 40.6 6.90001 40.5 6.50001ZM41.3 6.50001C41.3 7.10002 41.3 7.90002 41.3 8.80002C41.5 8.80002 41.7 8.90002 41.9 9.10002C41.6 8.00002 41.3 7.00001 41.3 6.50001ZM30.8 27.7C30.8 28.3 31.3 28.7 31.8 28.7L41 28.7C41.5 28.7 41.8 28.4 42 27.6C42.9 21.9 42.9 16.1 42 10.3C41.7 9.30002 41.3 9.20001 41 9.20001L31.8 9.20001C31.2 9.20001 30.8 9.70001 30.8 10.2L30.8 27.7ZM30.4 9.70001C30.5 9.40001 30.7 9.20001 31 9.00001C30.8 8.00001 30.5 7.00001 30.4 6.50001C30.4 7.30001 30.4 8.50001 30.4 9.70001Z" fill="#353535"/>
<path d="M14.5998 19.4L17.2998 19.4L17.2998 20.1L14.5998 20.1L14.5998 19.4Z" fill="#353535"/>
<path d="M17.3994 21L17.3994 21.9L14.5994 21.4L14.5994 20.6L17.3994 21Z" fill="#353535"/>
<path d="M17.3994 22.7L17.3994 23.6L14.5994 22.7L14.5994 21.8L17.3994 22.7Z" fill="#353535"/>
<path d="M17.3994 24.3L17.3994 25.3L14.5994 23.9L14.5994 23.1L17.3994 24.3Z" fill="#353535"/>
<path d="M17.3994 25.9L17.3994 27.1L14.5994 25.2L14.5994 24.3L17.3994 25.9Z" fill="#353535"/>
<path d="M17.3994 27.5L17.3994 28.8L14.5994 26.5L14.5994 25.5L17.3994 27.5Z" fill="#353535"/>
<path d="M17.5 29.2L17.5 30.5L14.6 27.7L14.6 26.7L17.5 29.2Z" fill="#353535"/>
<path d="M14.5998 18.1L17.2998 18.1L17.2998 18.7L14.5998 18.7L14.5998 18.1Z" fill="#353535"/>
<path d="M17.2998 17.4L14.5998 17.7L14.5998 17.2L17.2998 16.8L17.2998 17.4Z" fill="#353535"/>
<path d="M17.2998 16.1L14.5998 16.8L14.5998 16.2L17.2998 15.5L17.2998 16.1Z" fill="#353535"/>
<path d="M14.5998 15.3L17.2998 14.2L17.2998 14.7L14.5998 15.8L14.5998 15.3Z" fill="#353535"/>
<path d="M14.5998 14.3L17.2998 12.9L17.2998 13.4L14.5998 14.8L14.5998 14.3Z" fill="#353535"/>
<path d="M14.5998 13.4L17.2998 11.6L17.2998 12L14.5998 13.8L14.5998 13.4Z" fill="#353535"/>
<path d="M14.5998 12.4L17.2998 10.3L17.2998 10.7L14.5998 12.8L14.5998 12.4Z" fill="#353535"/>
<path d="M14.5998 11.5L17.2998 9.00002L17.2998 9.40001L14.5998 11.9L14.5998 11.5Z" fill="#353535"/>
<path d="M14.5998 10.5L17.2998 7.60001L17.2998 8.00001L14.5998 10.9L14.5998 10.5Z" fill="#353535"/>
<path d="M32 15.3L41.9 15.3C42 15.3 42 15.4 42 15.4C42 15.5 41.9 15.5 41.9 15.5L32 15.5C31.9 15.5 31.9 15.4 31.9 15.4C31.8 15.4 31.9 15.3 32 15.3Z" fill="#353535"/>
<path d="M32 22.5L41.9 22.5C42 22.5 42 22.6 42 22.6C42 22.7 41.9 22.7 41.9 22.7L32 22.7C31.9 22.7 31.9 22.6 31.9 22.6C31.8 22.6 31.9 22.5 32 22.5Z" fill="#353535"/>
<path d="M40.1002 14.1L34.0002 14.1C33.7002 14.1 33.4002 13.8 33.4002 13.5L33.4002 12C33.4002 11.7 33.7002 11.4 34.0002 11.4L40.1002 11.4C40.4002 11.4 40.7002 11.7 40.7002 12L40.7002 13.5C40.7002 13.8 40.4002 14.1 40.1002 14.1ZM39.0002 11.6L38.3002 11.6L38.3002 13.9L39.0002 13.9L39.0002 11.6Z" fill="#353535"/>
<path d="M34.0002 20.4C33.7002 20.4 33.4002 20.1 33.4002 19.8L33.4002 18.3C33.4002 18 33.7002 17.7 34.0002 17.7L40.1002 17.7C40.4002 17.7 40.7002 18 40.7002 18.3L40.7002 19.8C40.7002 20.1 40.4002 20.4 40.1002 20.4L34.0002 20.4ZM36.3002 17.8L35.6002 17.8L35.6002 20.2L36.3002 20.2L36.3002 17.8Z" fill="#353535"/>
<path d="M34.1994 24.6L40.2994 24.6C40.5994 24.6 40.8994 24.9 40.8994 25.2L40.8994 26.7C40.8994 27 40.5994 27.3 40.2994 27.3L34.1994 27.3C33.8994 27.3 33.5994 27 33.5994 26.7L33.5994 25.2C33.5994 24.8 33.8994 24.6 34.1994 24.6ZM38.3994 27.1L39.0994 27.1L39.0994 24.7L38.3994 24.7L38.3994 27.1Z" fill="#353535"/>
<path d="M13.2002 27L12.1002 27C12.2002 26.1 12.8002 23.4 13.2002 21.2C13.2002 23.3 13.2002 25.6 13.2002 27Z" fill="#353535"/>
<path d="M7.09961 27L5.9996 27C6.0996 26.1 6.69961 23.4 7.09961 21.2C7.09961 23.3 7.09961 25.6 7.09961 27Z" fill="#353535"/>
<path d="M12.5001 11.1C12.5001 11.9 12.5001 13.2 12.5001 14.3C12.3001 13.1 11.9001 11.7 11.8001 11.1C11.8001 11.9 11.8001 13.2 11.8001 14.3C11.6001 13.1 11.2001 11.7 11.1001 11.1C11.1001 11.9 11.1001 13.2 11.1001 14.3C10.9001 13.1 10.5001 11.7 10.4001 11.1C10.4001 11.9 10.4001 13.2 10.4001 14.3C10.2001 13.1 9.8001 11.7 9.7001 11.1C9.7001 11.9 9.7001 13.2 9.7001 14.3C9.5001 13.1 9.1001 11.7 9.0001 11.1C9.0001 11.9 9.0001 13.2 9.0001 14.3C8.8001 13.1 8.4001 11.7 8.3001 11.1C8.3001 11.9 8.3001 13.2 8.3001 14.3C8.1001 13.1 7.70011 11.7 7.60011 11.1C7.60011 11.9 7.60011 13.2 7.6001 14.3C7.40011 13.1 7.0001 11.7 6.9001 11.1C6.9001 11.9 6.9001 13.2 6.9001 14.3C6.6001 13 6.20011 11.5 6.10011 10.9L6.8001 10.9L7.3001 10.9L8.0001 10.9L8.7001 10.9L9.4001 10.9L10.1001 10.9L10.8001 10.9L11.5001 10.9L12.2001 10.9L12.9001 10.9C12.9001 11.7 12.9001 13.1 12.9001 14.3C13.0001 13.2 12.6001 11.8 12.5001 11.1Z" fill="#353535"/>
<path d="M4.5 26.7L3.7 26.7C3.8 25.5 4.2 22.2 4.5 19.4C4.5 22 4.5 24.9 4.5 26.7Z" fill="#353535"/>
<path d="M3.70019 26.7L2.90019 26.7C3.00019 25.5 3.4002 22.2 3.7002 19.4C3.7002 22 3.60019 24.9 3.70019 26.7Z" fill="#353535"/>
<path d="M2.7998 26.7L1.9998 26.7C2.0998 25.5 2.4998 22.2 2.7998 19.4C2.7998 22 2.7998 24.9 2.7998 26.7Z" fill="#353535"/>
<path d="M4.5 13.7C4.2 12.8 3.8 11.8 3.7 11.4L4.5 11.4C4.5 12 4.5 12.9 4.5 13.7Z" fill="#353535"/>
<path d="M3.7002 13.7C3.4002 12.8 3.00019 11.8 2.90019 11.4L3.7002 11.4C3.6002 12 3.7002 12.9 3.7002 13.7Z" fill="#353535"/>
<path d="M2.7998 13.7C2.4998 12.8 2.0998 11.8 1.9998 11.4L2.7998 11.4C2.7998 12 2.7998 12.9 2.7998 13.7Z" fill="#353535"/>
<path d="M19.8 31.5C19.9 31.5 20.1 31.5 20.1 31.7C20.2 31.9 20.2 33 20.4 34.8C20.5 36.3 20.7 38.1 20.7 38.4C20.8 39.1 21.3 40.6 22.2 41.6C23.2 42.7 25.7 45.3 26 45.5L26.1 45.6C26.4 45.9 26.8 46.2 28.3 46.3C30 46.4 50.1 46.3 50.3 46.3C50.4 46.3 50.5 46.4 50.5 46.5C50.5 46.6 50.4 46.8 50.3 46.8C49.8 46.8 41.1 46.8 34.7 46.8C31.4 46.8 28.8 46.8 28.2 46.8C26.6 46.7 26.1 46.3 25.7 46L25.6 45.9C25.3 45.6 22.7 43 21.7 42C20.8 41 20.2 39.4 20.1 38.6C20 38.2 19.9 36.6 19.7 34.9C19.6 33.5 19.5 32 19.4 31.8C19.6 31.7 19.7 31.5 19.8 31.5Z" fill="#353535"/>
</g>
<path d="M115.53 15L115.5 9.43501L112.8 13.965H111.48L108.795 9.58501V15H106.05V4.50001H108.495L112.185 10.56L115.785 4.50001H118.23L118.26 15H115.53ZM124.052 15.21C123.202 15.21 122.377 15.105 121.577 14.895C120.777 14.685 120.127 14.405 119.627 14.055L120.602 11.865C121.072 12.175 121.617 12.425 122.237 12.615C122.857 12.805 123.467 12.9 124.067 12.9C125.207 12.9 125.777 12.615 125.777 12.045C125.777 11.745 125.612 11.525 125.282 11.385C124.962 11.235 124.442 11.08 123.722 10.92C122.932 10.75 122.272 10.57 121.742 10.38C121.212 10.18 120.757 9.86502 120.377 9.43501C119.997 9.00501 119.807 8.42501 119.807 7.69501C119.807 7.05502 119.982 6.48001 120.332 5.97001C120.682 5.45001 121.202 5.04001 121.892 4.74002C122.592 4.44001 123.447 4.29001 124.457 4.29001C125.147 4.29001 125.827 4.37001 126.497 4.53002C127.167 4.68001 127.757 4.90501 128.267 5.20501L127.352 7.41001C126.352 6.87002 125.382 6.60002 124.442 6.60002C123.852 6.60002 123.422 6.69001 123.152 6.87001C122.882 7.04001 122.747 7.26501 122.747 7.54502C122.747 7.82502 122.907 8.03502 123.227 8.17502C123.547 8.31502 124.062 8.46001 124.772 8.61001C125.572 8.78002 126.232 8.96502 126.752 9.16501C127.282 9.35502 127.737 9.66502 128.117 10.095C128.507 10.515 128.702 11.09 128.702 11.82C128.702 12.45 128.527 13.02 128.177 13.53C127.827 14.04 127.302 14.45 126.602 14.76C125.902 15.06 125.052 15.21 124.052 15.21ZM140.063 4.50001V15H137.093V10.905H133.043V15H130.073V4.50001H133.043V8.44502H137.093V4.50001H140.063ZM110.85 22.5C111.8 22.5 112.625 22.66 113.325 22.98C114.025 23.29 114.565 23.74 114.945 24.33C115.325 24.91 115.515 25.595 115.515 26.385C115.515 27.175 115.325 27.86 114.945 28.44C114.565 29.02 114.025 29.47 113.325 29.79C112.625 30.1 111.8 30.255 110.85 30.255H109.02V33H106.05V22.5H110.85ZM110.67 27.915C111.28 27.915 111.74 27.785 112.05 27.525C112.36 27.255 112.515 26.875 112.515 26.385C112.515 25.895 112.36 25.515 112.05 25.245C111.74 24.975 111.28 24.84 110.67 24.84H109.02V27.915H110.67ZM122.27 24.735C123.28 24.735 124.09 25.035 124.7 25.635C125.32 26.235 125.63 27.14 125.63 28.35V33H122.78V28.815C122.78 27.705 122.335 27.15 121.445 27.15C120.955 27.15 120.56 27.31 120.26 27.63C119.97 27.95 119.825 28.43 119.825 29.07V33H116.975V21.87H119.825V25.62C120.135 25.33 120.5 25.11 120.92 24.96C121.34 24.81 121.79 24.735 122.27 24.735ZM131.616 33.135C130.746 33.135 129.961 32.955 129.261 32.595C128.561 32.235 128.011 31.735 127.611 31.095C127.221 30.455 127.026 29.73 127.026 28.92C127.026 28.12 127.221 27.4 127.611 26.76C128.011 26.12 128.556 25.625 129.246 25.275C129.946 24.915 130.736 24.735 131.616 24.735C132.496 24.735 133.286 24.915 133.986 25.275C134.686 25.625 135.231 26.12 135.621 26.76C136.011 27.39 136.206 28.11 136.206 28.92C136.206 29.73 136.011 30.455 135.621 31.095C135.231 31.735 134.686 32.235 133.986 32.595C133.286 32.955 132.496 33.135 131.616 33.135ZM131.616 30.87C132.116 30.87 132.526 30.7 132.846 30.36C133.166 30.01 133.326 29.53 133.326 28.92C133.326 28.32 133.166 27.85 132.846 27.51C132.526 27.17 132.116 27 131.616 27C131.116 27 130.706 27.17 130.386 27.51C130.066 27.85 129.906 28.32 129.906 28.92C129.906 29.53 130.066 30.01 130.386 30.36C130.706 30.7 131.116 30.87 131.616 30.87ZM143.136 32.67C142.896 32.82 142.601 32.935 142.251 33.015C141.911 33.095 141.546 33.135 141.156 33.135C140.096 33.135 139.281 32.875 138.711 32.355C138.141 31.835 137.856 31.06 137.856 30.03V27.3H136.671V25.17H137.856V23.055H140.706V25.17H142.566V27.3H140.706V30C140.706 30.29 140.781 30.52 140.931 30.69C141.091 30.85 141.301 30.93 141.561 30.93C141.891 30.93 142.181 30.845 142.431 30.675L143.136 32.67ZM148.081 33.135C147.211 33.135 146.426 32.955 145.726 32.595C145.026 32.235 144.476 31.735 144.076 31.095C143.686 30.455 143.491 29.73 143.491 28.92C143.491 28.12 143.686 27.4 144.076 26.76C144.476 26.12 145.021 25.625 145.711 25.275C146.411 24.915 147.201 24.735 148.081 24.735C148.961 24.735 149.751 24.915 150.451 25.275C151.151 25.625 151.696 26.12 152.086 26.76C152.476 27.39 152.671 28.11 152.671 28.92C152.671 29.73 152.476 30.455 152.086 31.095C151.696 31.735 151.151 32.235 150.451 32.595C149.751 32.955 148.961 33.135 148.081 33.135ZM148.081 30.87C148.581 30.87 148.991 30.7 149.311 30.36C149.631 30.01 149.791 29.53 149.791 28.92C149.791 28.32 149.631 27.85 149.311 27.51C148.991 27.17 148.581 27 148.081 27C147.581 27 147.171 27.17 146.851 27.51C146.531 27.85 146.371 28.32 146.371 28.92C146.371 29.53 146.531 30.01 146.851 30.36C147.171 30.7 147.581 30.87 148.081 30.87ZM162.736 24.87V31.515C162.736 33.025 162.326 34.155 161.506 34.905C160.686 35.665 159.506 36.045 157.966 36.045C157.166 36.045 156.416 35.955 155.716 35.775C155.016 35.595 154.421 35.33 153.931 34.98L154.966 32.985C155.296 33.255 155.711 33.465 156.211 33.615C156.721 33.775 157.221 33.855 157.711 33.855C158.461 33.855 159.011 33.69 159.361 33.36C159.711 33.03 159.886 32.54 159.886 31.89V31.62C159.336 32.26 158.531 32.58 157.471 32.58C156.751 32.58 156.086 32.42 155.476 32.1C154.866 31.77 154.381 31.31 154.021 30.72C153.661 30.12 153.481 29.43 153.481 28.65C153.481 27.88 153.661 27.2 154.021 26.61C154.381 26.01 154.866 25.55 155.476 25.23C156.086 24.9 156.751 24.735 157.471 24.735C158.631 24.735 159.481 25.11 160.021 25.86V24.87H162.736ZM158.146 30.315C158.656 30.315 159.076 30.16 159.406 29.85C159.746 29.54 159.916 29.14 159.916 28.65C159.916 28.16 159.751 27.765 159.421 27.465C159.091 27.155 158.666 27 158.146 27C157.626 27 157.196 27.155 156.856 27.465C156.526 27.765 156.361 28.16 156.361 28.65C156.361 29.14 156.531 29.54 156.871 29.85C157.211 30.16 157.636 30.315 158.146 30.315ZM167.282 25.845C167.572 25.475 167.947 25.2 168.407 25.02C168.877 24.83 169.412 24.735 170.012 24.735V27.3C169.752 27.27 169.537 27.255 169.367 27.255C168.757 27.255 168.277 27.42 167.927 27.75C167.587 28.08 167.417 28.585 167.417 29.265V33H164.567V24.87H167.282V25.845ZM174.595 24.735C175.945 24.735 176.975 25.045 177.685 25.665C178.395 26.275 178.75 27.215 178.75 28.485V33H176.095V31.95C175.685 32.74 174.885 33.135 173.695 33.135C173.065 33.135 172.52 33.025 172.06 32.805C171.6 32.585 171.25 32.29 171.01 31.92C170.78 31.54 170.665 31.11 170.665 30.63C170.665 29.86 170.96 29.265 171.55 28.845C172.14 28.415 173.05 28.2 174.28 28.2H175.9C175.85 27.34 175.275 26.91 174.175 26.91C173.785 26.91 173.39 26.975 172.99 27.105C172.59 27.225 172.25 27.395 171.97 27.615L171.01 25.68C171.46 25.38 172.005 25.15 172.645 24.99C173.295 24.82 173.945 24.735 174.595 24.735ZM174.49 31.335C174.82 31.335 175.11 31.255 175.36 31.095C175.61 30.935 175.79 30.7 175.9 30.39V29.685H174.67C173.84 29.685 173.425 29.96 173.425 30.51C173.425 30.76 173.52 30.96 173.71 31.11C173.9 31.26 174.16 31.335 174.49 31.335ZM185.664 24.735C186.404 24.735 187.074 24.91 187.674 25.26C188.284 25.6 188.764 26.09 189.114 26.73C189.474 27.36 189.654 28.095 189.654 28.935C189.654 29.775 189.474 30.515 189.114 31.155C188.764 31.785 188.284 32.275 187.674 32.625C187.074 32.965 186.404 33.135 185.664 33.135C184.714 33.135 183.959 32.85 183.399 32.28V35.91H180.549V24.87H183.264V25.68C183.794 25.05 184.594 24.735 185.664 24.735ZM185.064 30.87C185.564 30.87 185.974 30.7 186.294 30.36C186.614 30.01 186.774 29.535 186.774 28.935C186.774 28.335 186.614 27.865 186.294 27.525C185.974 27.175 185.564 27 185.064 27C184.564 27 184.154 27.175 183.834 27.525C183.514 27.865 183.354 28.335 183.354 28.935C183.354 29.535 183.514 30.01 183.834 30.36C184.154 30.7 184.564 30.87 185.064 30.87ZM196.273 24.735C197.283 24.735 198.093 25.035 198.703 25.635C199.323 26.235 199.633 27.14 199.633 28.35V33H196.783V28.815C196.783 27.705 196.338 27.15 195.448 27.15C194.958 27.15 194.563 27.31 194.263 27.63C193.973 27.95 193.828 28.43 193.828 29.07V33H190.978V21.87H193.828V25.62C194.138 25.33 194.503 25.11 194.923 24.96C195.343 24.81 195.793 24.735 196.273 24.735ZM209.841 24.87L206.331 33.33C205.921 34.33 205.421 35.03 204.831 35.43C204.241 35.84 203.521 36.045 202.671 36.045C202.241 36.045 201.806 35.975 201.366 35.835C200.936 35.705 200.586 35.53 200.316 35.31L201.306 33.315C201.466 33.465 201.656 33.58 201.876 33.66C202.106 33.75 202.336 33.795 202.566 33.795C202.836 33.795 203.056 33.74 203.226 33.63C203.406 33.52 203.556 33.345 203.676 33.105L200.196 24.87H203.121L205.116 29.835L207.126 24.87H209.841Z" fill="#353535"/>
<defs>
<clipPath id="clip0">
<rect width="102.3" height="48.2" fill="white" transform="matrix(-1 -8.74228e-08 -8.74228e-08 1 102.3 1.52588e-05)"/>
</clipPath>
</defs>
</svg>
